v 15.4948 49.0411 -4.5742
v 14.0399 48.7975 -2.9403
v 12.6780 48.3032 -1.4267
v 11.5104 47.4445 0.0000
v 10.6152 46.2743 1.3631
v 10.0555 44.9145 2.6386
v 9.8658 43.4733 3.8188
v 10.0251 42.0317 4.9190
v 10.3992 40.6162 5.9540
v 10.8720 39.2366 6.9121
v 11.4065 37.8840 7.7977
v 11.9763 36.5471 8.6156
v 12.5550 35.2148 9.3688
v 13.1171 33.8760 10.0602
v 13.6540 32.5269 10.6925
v 14.1744 31.1709 11.2687
v 14.6875 29.8117 11.7913
v 15.2025 28.4528 12.2628
v 15.7280 27.0977 12.6859
v 16.2644 25.7465 13.0630
v 16.8081 24.3981 13.3969
v 17.3557 23.0512 13.6902
v 17.9036 21.7045 13.9454
v 18.4483 20.3568 14.1651
v 18.9864 19.0068 14.3521
v 19.5141 17.6532 14.5088
v 20.0282 16.2949 14.6381
v 20.5249 14.9304 14.7426
v 21.0011 13.5588 14.8249
v 21.4625 12.1818 14.8876
v 21.9271 10.8057 14.9334
v 22.4138 9.4369 14.9649
v 22.9412 8.0818 14.9848
v 23.5281 6.7468 14.9956
v 24.1935 5.4387 15.0000
v 24.9624 4.1851 15.0006
v 25.8692 3.0456 15.0000
v 26.9491 2.0827 15.0004
v 28.2101 1.3440 15.0015
v 29.6025 0.8457 15.0024
v 31.0667 0.6041 15.0022
v 32.5230 0.6674 15.0000
v 33.8836 1.0966 14.9955
v 35.1149 1.8681 14.9901
v 36.2516 2.8506 14.9856
v 37.2999 3.9362 14.9846
v 38.1490 5.1233 14.9889
v 38.6639 6.4332 15.0000
v 38.8344 7.8573 15.0000
v 38.9071 9.3250 14.9075
v 39.1395 10.7636 14.7103
v 39.5673 12.1555 14.4170
v 40.0913 13.5172 14.0353
v 40.6547 14.8556 13.5767
v 41.2998 16.1553 13.0486
v 42.0410 17.4095 12.4568
v 42.8463 18.6242 11.8117
v 43.6942 19.8048 11.1240
v 44.5791 20.9551 10.4018
v 45.4966 22.0787 9.6530
v 46.4421 23.1793 8.8857
v 47.4109 24.2607 8.1080
v 48.3986 25.3264 7.3285
v 49.4006 26.3801 6.5557
v 50.4123 27.4255 5.7985
v 51.4292 28.4664 5.0656
v 52.4467 29.5062 4.3662
v 53.4603 30.5488 3.7088
v 54.4655 31.5977 3.1024
v 55.4643 32.6509 2.5553
v 56.4718 33.6953 2.0757
v 57.5041 34.7165 1.6716
v 58.5776 35.7002 1.3514
v 59.6912 36.6474 1.1241
v 60.7977 37.5997 1.0000
v 61.8419 38.6054 0.9756
v 62.7703 39.7113 1.0000
v 63.5643 40.9273 1.0231
v 64.2433 42.2228 1.0363
v 64.8284 43.5656 1.0411
v 65.3349 44.9299 1.0396
v 65.7498 46.3212 1.0335
v 66.0523 47.7539 1.0247
v 66.2160 49.2294 1.0149
v 66.1983 50.7082 1.0063
v 65.9536 52.1426 1.0007
v 65.4397 53.4862 1.0000
v 64.6666 54.7083 1.0049
v 63.6805 55.7889 1.0128
v 62.5234 56.7032 1.0201
v 61.2344 57.4233 1.0229
v 59.8523 57.9214 1.0173
v 58.4161 58.1695 1.0000
v 56.9648 58.1409 1.0000
v 55.5367 57.8362 1.1431
v 54.1697 57.2860 1.4493
v 52.9019 56.5221 1.9002
v 51.7803 55.5691 2.4707
v 50.8657 54.4410 3.1336
v 50.1970 53.1589 3.8729
v 49.6816 51.7928 4.6804
v 49.1846 50.4259 5.5263
v 48.6651 49.0774 6.3885
v 48.1541 47.7174 7.2580
v 47.6520 46.3408 8.1183
v 47.1103 44.9810 8.9409
v 46.4765 43.6751 9.7013
v 45.6983 42.4598 10.3832
v 44.7265 41.3740 10.9777
v 43.5613 40.4850 11.4606
v 42.2413 39.8783 11.8061
v 40.8150 39.5659 12.0000
v 39.3383 39.4970 12.0396
v 37.8600 39.5656 12.0000
v 36.4145 39.5622 11.9635
v 35.0330 39.2747 11.9435
v 33.7241 38.6679 11.9365
v 32.4764 37.8609 11.9411
v 31.2778 36.9766 11.9551
v 30.1145 36.0855 11.9756
v 28.9711 35.1970 12.0000
v 27.8319 34.3171 12.0257
v 26.6814 33.4517 12.0502
v 25.5038 32.6067 12.0704
v 24.2867 31.7855 12.0835
v 23.0875 30.9327 12.0859
v 22.0277 29.9405 12.0747
v 21.1669 28.7790 12.0471
v 20.5115 27.4843 12.0000
v 20.0663 26.0942 11.9328
v 19.8363 24.6465 11.8564
v 19.8262 23.1792 11.7853
v 20.0411 21.7302 11.7339
v 20.4860 20.3408 11.7160
v 21.1672 19.0630 11.7450
v 22.0826 17.9420 11.8343
v 23.1861 16.9772 12.0000
v 24.4193 16.1562 12.0000
v 25.7421 15.5076 11.0424
v 27.1307 15.0953 10.0000
v 28.5618 14.9700 9.7936
v 30.0145 15.0777 10.0000
v 31.4684 15.3178 10.0292
v 32.9072 15.5980 10.0000
v 34.3348 15.8742 10.0000
v 35.7627 16.1190 9.4913
v 37.2021 16.3050 8.5952
v 38.6591 16.4067 7.6475
v 40.1219 16.4047 7.0000
v 41.5749 16.2809 6.9108
v 43.0025 16.0171 7.2652
v 44.3973 15.6171 7.8630
v 45.7748 15.1461 8.5084
v 47.1544 14.6785 9.0000
v 48.5422 14.2422 9.1810
v 49.9294 13.8134 9.0722
v 51.3068 13.3652 8.7379
v 52.6721 12.8861 8.2412
v 54.0377 12.3952 7.6421
v 55.4180 11.9153 7.0000
v 56.8248 11.4758 6.3968
v 58.2533 11.1546 6.0000
v 59.6912 11.0507 5.9164
v 61.1220 11.2387 6.0000
v 62.5137 11.6950 6.0861
v 63.8294 12.3732 6.1432
v 65.0223 13.2465 6.1746
v 66.0389 14.3005 6.1846
v 66.8321 15.5176 6.1777
v 67.3884 16.8603 6.1581
v 67.7055 18.2848 6.1298
v 67.7813 19.7472 6.0967
v 67.6137 21.2038 6.0630
v 67.2015 22.6103 6.0329
v 66.5509 23.9206 6.0106
v 65.6724 25.0881 6.0000
v 64.5909 26.0757 6.0015
v 63.3516 26.8608 6.0000
v 62.0011 27.4213 5.9802
v 60.5862 27.7356 5.9405
v 59.1459 27.8073 5.8825
v 57.6953 27.7219 5.8066
v 56.2442 27.5762 5.7143
v 54.7965 27.4106 5.6072
v 53.3520 27.2276 5.4867
v 51.9103 27.0290 5.3541
v 50.4712 26.8165 5.2108
v 49.0344 26.5919 5.0580
v 47.5996 26.3571 4.8972
v 46.1666 26.1137 4.7296
v 44.7350 25.8635 4.5565
v 43.3045 25.6084 4.3794
v 41.8749 25.3501 4.1995
v 40.4458 25.0903 4.0182
v 39.0171 24.8309 3.8367
v 37.5883 24.5736 3.6565
v 36.1594 24.3195 3.4789
v 34.7300 24.0688 3.3051
v 33.3002 23.8213 3.1365
v 31.8697 23.5772 2.9743
v 30.4384 23.3364 2.8200
v 29.0062 23.0989 2.6747
v 27.5730 22.8648 2.5398
v 26.1386 22.6340 2.4167
v 24.7028 22.4066 2.3067
v 23.2656 22.1826 2.2110
v 21.8268 21.9619 2.1312
v 20.3862 21.7447 2.0685
v 18.9438 21.5308 2.0243
v 17.4994 21.3203 2.0000
v 16.0529 21.1134 1.9950
v 14.6047 20.9253 2.0000
v 13.1567 20.7963 2.0056
v 11.7105 20.7690 2.0092
v 10.2679 20.8861 2.0101
v 8.8332 21.1891 2.0073
v 7.4449 21.7043 2.0000
v 6.1672 22.4464 2.0000
v 5.0644 23.4281 2.0557
v 4.1891 24.6221 2.1704
v 3.5829 25.9642 2.3315
v 3.2859 27.3887 2.5256
v 3.2890 28.8444 2.7433
v 3.5118 30.3001 2.9761
v 3.8687 31.7268 3.2101
v 4.3055 33.1105 3.4311
v 4.8164 34.4615 3.6305
v 5.4002 35.7920 3.7995
v 6.0556 37.1134 3.9273
v 6.7966 38.4048 4.0000
v 7.6557 39.6038 4.0133
v 8.6668 40.6452 4.0000
v 9.8567 41.4676 3.9921
v 11.1944 42.0404 3.9925
v 12.6220 42.3476 3.9968
v 14.0815 42.3731 4.0007
v 15.5148 42.1009 4.0000
v 16.8684 41.5317 3.9916
v 18.1072 40.7304 3.9785
v 19.2090 39.7753 3.9654
v 20.2128 38.7302 3.9567
v 21.1833 37.6533 3.9566
v 22.1761 36.5943 3.9696
v 23.1940 35.5566 4.0000
v 24.2212 34.5277 4.0000
v 25.2419 33.4947 3.7781
v 26.2498 32.4514 3.3516
v 27.2595 31.4070 2.8011
v 28.2892 30.3731 2.2064
v 29.3593 29.3715 1.6503
v 30.4998 28.4643 1.2216
v 31.7429 27.7229 1.0000
v 33.1060 27.2019 1.0000
v 34.5507 26.8934 1.0339
v 36.0260 26.7748 1.0522
v 37.4821 26.8231 1.0577
v 38.9055 27.0070 1.0539
v 40.3170 27.2871 1.0436
v 41.7363 27.6273 1.0292
v 43.1552 28.0272 1.0137
v 44.5508 28.5056 1.0000
v 45.9003 29.0811 0.9907
v 47.1807 29.7726 0.9861
v 48.3691 30.5987 0.9862
v 49.4424 31.5784 0.9908
v 50.3676 32.7162 1.0000
v 51.0891 33.9864 1.0097
v 51.5503 35.3588 1.0000
v 51.7565 36.8001 0.9524
v 51.7893 38.2734 0.8689
v 51.7316 39.7424 0.7591
v 51.6066 41.1920 0.6332
v 51.3846 42.6255 0.4991
v 51.0340 44.0467 0.3639
v 50.5097 45.4222 0.2370
v 49.7432 46.6541 0.1293
v 48.6854 47.6493 0.0475
v 47.4072 48.3798 -0.0000
v 46.0180 48.8404 -0.0089
v 44.5838 49.0660 -0.0000
v 43.1233 49.1338 0.0058
v 41.6531 49.1230 0.0061
v 40.1885 49.1071 0.0034
v 38.7327 49.1072 -0.0000
v 37.2826 49.1167 -0.0021
v 35.8351 49.1287 -0.0029
v 34.3869 49.1363 -0.0026
v 32.9364 49.1362 -0.0019
v 31.4838 49.1303 -0.0008
v 30.0298 49.1211 0.0000
v 28.5749 49.1111 0.0004
v 27.1197 49.1028 0.0004
v 25.6648 49.0986 0.0002
v 24.2107 49.1012 0.0000
v 22.7581 49.1129 -0.0001
v 21.3076 49.1363 -0.0001
v 19.8590 49.1690 0.0000
v 18.4098 49.1857 0.0001
v 16.9562 49.1539 0.0001
v 15.4948 49.0411 0.0000
v 15.4948 49.0411 -4.5742
l 1 2
l 2 3
l 3 4
l 4 5
l 5 6
l 6 7
l 7 8
l 8 9
l 9 10
l 10 11
l 11 12
l 12 13
l 13 14
l 14 15
l 15 16
l 16 17
l 17 18
l 18 19
l 19 20
l 20 21
l 21 22
l 22 23
l 23 24
l 24 25
l 25 26
l 26 27
l 27 28
l 28 29
l 29 30
l 30 31
l 31 32
l 32 33
l 33 34
l 34 35
l 35 36
l 36 37
l 37 38
l 38 39
l 39 40
l 40 41
l 41 42
l 42 43
l 43 44
l 44 45
l 45 46
l 46 47
l 47 48
l 48 49
l 49 50
l 50 51
l 51 52
l 52 53
l 53 54
l 54 55
l 55 56
l 56 57
l 57 58
l 58 59
l 59 60
l 60 61
l 61 62
l 62 63
l 63 64
l 64 65
l 65 66
l 66 67
l 67 68
l 68 69
l 69 70
l 70 71
l 71 72
l 72 73
l 73 74
l 74 75
l 75 76
l 76 77
l 77 78
l 78 79
l 79 80
l 80 81
l 81 82
l 82 83
l 83 84
l 84 85
l 85 86
l 86 87
l 87 88
l 88 89
l 89 90
l 90 91
l 91 92
l 92 93
l 93 94
l 94 95
l 95 96
l 96 97
l 97 98
l 98 99
l 99 100
l 100 101
l 101 102
l 102 103
l 103 104
l 104 105
l 105 106
l 106 107
l 107 108
l 108 109
l 109 110
l 110 111
l 111 112
l 112 113
l 113 114
l 114 115
l 115 116
l 116 117
l 117 118
l 118 119
l 119 120
l 120 121
l 121 122
l 122 123
l 123 124
l 124 125
l 125 126
l 126 127
l 127 128
l 128 129
l 129 130
l 130 131
l 131 132
l 132 133
l 133 134
l 134 135
l 135 136
l 136 137
l 137 138
l 138 139
l 139 140
l 140 141
l 141 142
l 142 143
l 143 144
l 144 145
l 145 146
l 146 147
l 147 148
l 148 149
l 149 150
l 150 151
l 151 152
l 152 153
l 153 154
l 154 155
l 155 156
l 156 157
l 157 158
l 158 159
l 159 160
l 160 161
l 161 162
l 162 163
l 163 164
l 164 165
l 165 166
l 166 167
l 167 168
l 168 169
l 169 170
l 170 171
l 171 172
l 172 173
l 173 174
l 174 175
l 175 176
l 176 177
l 177 178
l 178 179
l 179 180
l 180 181
l 181 182
l 182 183
l 183 184
l 184 185
l 185 186
l 186 187
l 187 188
l 188 189
l 189 190
l 190 191
l 191 192
l 192 193
l 193 194
l 194 195
l 195 196
l 196 197
l 197 198
l 198 199
l 199 200
l 200 201
l 201 202
l 202 203
l 203 204
l 204 205
l 205 206
l 206 207
l 207 208
l 208 209
l 209 210
l 210 211
l 211 212
l 212 213
l 213 214
l 214 215
l 215 216
l 216 217
l 217 218
l 218 219
l 219 220
l 220 221
l 221 222
l 222 223
l 223 224
l 224 225
l 225 226
l 226 227
l 227 228
l 228 229
l 229 230
l 230 231
l 231 232
l 232 233
l 233 234
l 234 235
l 235 236
l 236 237
l 237 238
l 238 239
l 239 240
l 240 241
l 241 242
l 242 243
l 243 244
l 244 245
l 245 246
l 246 247
l 247 248
l 248 249
l 249 250
l 250 251
l 251 252
l 252 253
l 253 254
l 254 255
l 255 256
l 256 257
l 257 258
l 258 259
l 259 260
l 260 261
l 261 262
l 262 263
l 263 264
l 264 265
l 265 266
l 266 267
l 267 268
l 268 269
l 269 270
l 270 271
l 271 272
l 272 273
l 273 274
l 274 275
l 275 276
l 276 277
l 277 278
l 278 279
l 279 280
l 280 281
l 281 282
l 282 283
l 283 284
l 284 285
l 285 286
l 286 287
l 287 288
l 288 289
l 289 290
l 290 291
l 291 292
l 292 293
l 293 294
l 294 295
l 295 296
l 296 297
l 297 298
l 298 299
l 299 300
l 300 301
l 301 1
